<svg width="36" height="41" viewBox="0 0 36 41" fill="none" xmlns="http://www.w3.org/2000/svg">
<path fill-rule="evenodd" clip-rule="evenodd" d="M15.3972 16.1027H15.4934H17.9883H17.9909H17.9936H17.9963H17.999H18.0017H18.0045H18.0072H18.01H18.0128H18.0156H18.0184H18.0212H18.024H18.0269H18.0297H18.0326H18.0355H18.0384H18.0413H18.0443H18.0472H18.0502H18.0531H18.0561H18.0591H18.0621H18.0652H18.0682H18.0713H18.0743H18.0774H18.0805H18.0836H18.0867H18.0899H18.093H18.0962H18.0993H18.1025H18.1057H18.1089H18.1122H18.1154H18.1186H18.1219H18.1252H18.1285H18.1318H18.1351H18.1384H18.1417H18.1451H18.1484H18.1518H18.1552H18.1586H18.162H18.1654H18.1688H18.1723H18.1757H18.1792H18.1827H18.1862H18.1897H18.1932H18.1967H18.2003H18.2038H18.2074H18.2109H18.2145H18.2181H18.2217H18.2253H18.229H18.2326H18.2363H18.2399H18.2436H18.2473H18.251H18.2547H18.2584H18.2621H18.2659H18.2696H18.2734H18.2771H18.2809H18.2847H18.2885H18.2923H18.2961H18.3H18.3038H18.3077H18.3115H18.3154H18.3193H18.3232H18.3271H18.331H18.3349H18.3388H18.3428H18.3467H18.3507H18.3547H18.3587H18.3626H18.3667H18.3707H18.3747H18.3787H18.3827H18.3868H18.3909H18.3949H18.399H18.4031H18.4072H18.4113H18.4154H18.4195H18.4236H18.4278H18.4319H18.4361H18.4403H18.4444H18.4486H18.4528H18.457H18.4612H18.4654H18.4697H18.4739H18.4781H18.4824H18.4867H18.4909H18.4952H18.4995H18.5038H18.5081H18.5124H18.5167H18.521H18.5254H18.5297H18.534H18.5384H18.5428H18.5471H18.5515H18.5559H18.5603H18.5647H18.5691H18.5735H18.5779H18.5824H18.5868H18.5913H18.5957H18.6002H18.6046H18.6091H18.6136H18.6181H18.6226H18.6271H18.6316H18.6361H18.6406H18.6451H18.6497H18.6542H18.6588H18.6633H18.6679H18.6725H18.677H18.6816H18.6862H18.6908H18.6954H18.7H18.7046H18.7092H18.7138H18.7185H18.7231H18.7277H18.7324H18.737H18.7417H18.7464H18.751H18.7557H18.7604H18.7651H18.7698H18.7745H18.7792H18.7839H18.7886H18.7933H18.798H18.8028H18.8075H18.8122H18.817H18.8217H18.8265H18.8312H18.836H18.8408H18.8456H18.8503H18.8551H18.8599H18.8647H18.8695H18.8743H18.8791H18.8839H18.8887H18.8935H18.8984H18.9032H18.908H18.9129H18.9177H18.9225H18.9274H18.9322H18.9371H18.942H18.9468H18.9517H18.9566H18.9614H18.9663H18.9712H18.9761H18.981H18.9859H18.9908H18.9957H19.0006H19.0055H19.0104H19.0153H19.0202H19.0251H19.03H19.035H19.0399H19.0448H19.0498H19.0547H19.0596H19.0646H19.0695H19.0745H19.0794H19.0844H19.0893H19.0943H19.0992H19.1042H19.1092H19.1141H19.1191H19.1241H19.129H19.134H19.139H19.144H19.149H19.1539H19.1589H19.1639H19.1689H19.1739H19.1789H19.1839H19.1889H19.1939H19.1989H19.2039H19.2089H19.2139H19.2189H19.2239H19.2289H19.2339H19.2389H19.2439H19.249H19.254H19.259H19.264H19.269H19.274H19.279H19.2841H19.2891H19.2941H19.2991H19.3042H19.3092H19.3142H19.3192H19.3242H19.3293H19.3343H19.3393H19.3443H19.3494H19.3544H19.3594H19.3644H19.3695H19.3745H19.3795H19.3845H19.3896H19.3946H19.3996H19.4046H19.4097H19.4147H19.4197H19.4247H19.4298H19.4348H19.4398H19.4448H19.4498H19.4549H19.4599H19.4649H19.4699H19.4749H19.48H19.485H19.49H19.495H19.5H19.505H19.51H19.515H19.52H19.525H19.53H19.535H19.54H19.545H19.55H19.555H19.56H19.565H19.57H19.575H19.58H19.585H19.59H19.5949H19.5999H19.6049H19.6099H19.6148H19.6198H19.6248H19.6297H19.6347H19.6397H19.6446H19.6496H19.6545H19.6595H19.6644H19.6694H19.6743H19.6793H19.6842H19.6891H19.6941H19.699H19.7039H19.7089H19.7138H19.7187H19.7236H19.7285H19.7334H19.7383H19.7432H19.7481H19.753H19.7579H19.7628H19.7677H19.7726H19.7774H19.7823H19.7872H19.7921H19.7969H19.8018H19.8066H19.8115H19.8163H19.8212H19.826H19.8308H19.8357H19.8405H19.8453H19.8501H19.855H19.8598H19.8646H19.8694H19.8742H19.8789H19.8837H19.8885H19.8933H19.8981H19.9028H19.9076H19.9124H19.9171H19.9219H19.9266H19.9313H19.9361H19.9408H19.9455H19.9502H19.9549H19.9596H19.9643H19.969H19.9737H19.9784H19.9831H19.9878H19.9924H19.9971H20.0018H20.0064H20.0111H20.0157H20.0203H20.025H20.0296H20.0342H20.0388H20.0434H20.048H20.0526H20.0572H20.0617H20.0663H20.0709H20.0754H20.08H20.0845H20.0891H20.0936H20.0981H20.1027H20.1072H20.1117H20.1162H20.1207H20.1252H20.1296H20.1341H20.1386H20.143H20.1475H20.1519H20.1564H20.1608H20.1652H20.1696H20.174H20.1784H20.1828H20.1872H20.1916H20.1959H20.2003H20.2046H20.209H20.2133H20.2177H20.222H20.2263H20.2306H20.2349H20.2392H20.2435H20.2477H20.252H20.2563C20.8177 16.1027 21.2148 16.4027 21.4621 16.7214C21.7024 17.031 21.8309 17.3904 21.8806 17.6386L21.8866 17.6689L21.8889 17.6997C22.0389 19.7253 22.3439 24.0175 22.3439 24.7675C22.3439 25.3012 22.0703 25.7539 21.7995 26.0723C21.5232 26.3972 21.196 26.6465 20.9671 26.7838L20.8484 26.8551H20.7099H20.7005H20.6912H20.6818H20.6723H20.6629H20.6533H20.6438H20.6342H20.6245H20.6149H20.6051H20.5954H20.5856H20.5758H20.5659H20.556H20.546H20.5361H20.526H20.516H20.5059H20.4958H20.4856H20.4754H20.4652H20.4549H20.4446H20.4342H20.4239H20.4135H20.403H20.3925H20.382H20.3715H20.3609H20.3503H20.3396H20.3289H20.3182H20.3075H20.2967H20.2859H20.275H20.2642H20.2533H20.2423H20.2313H20.2203H20.2093H20.1982H20.1871H20.176H20.1649H20.1537H20.1424H20.1312H20.1199H20.1086H20.0973H20.0859H20.0745H20.0631H20.0517H20.0402H20.0287H20.0171H20.0056H19.994H19.9824H19.9707H19.9591H19.9474H19.9357H19.9239H19.9121H19.9003H19.8885H19.8767H19.8648H19.8529H19.841H19.829H19.817H19.805H19.793H19.781H19.7689H19.7568H19.7447H19.7326H19.7204H19.7082H19.696H19.6838H19.6715H19.6593H19.647H19.6347H19.6223H19.61H19.5976H19.5852H19.5728H19.5603H19.5479H19.5354H19.5229H19.5104H19.4978H19.4853H19.4727H19.4601H19.4475H19.4349H19.4222H19.4095H19.3969H19.3842H19.3714H19.3587H19.3459H19.3332H19.3204H19.3076H19.2948H19.2819H19.2691H19.2562H19.2433H19.2304H19.2175H19.2046H19.1917H19.1787H19.1657H19.1528H19.1398H19.1267H19.1137H19.1007H19.0876H19.0746H19.0615H19.0484H19.0353H19.0222H19.0091H18.9959H18.9828H18.9696H18.9565H18.9433H18.9301H18.9169H18.9037H18.8905H18.8772H18.864H18.8507H18.8375H18.8242H18.8109H18.7977H18.7844H18.7711H18.7578H18.7444H18.7311H18.7178H18.7044H18.6911H18.6777H18.6644H18.651H18.6376H18.6243H18.6109H18.5975H18.5841H18.5707H18.5573H18.5439H18.5304H18.517H18.5036H18.4902H18.4767H18.4633H18.4499H18.4364H18.423H18.4095H18.3961H18.3826H18.3692H18.3557H18.3422H18.3288H18.3153H18.3018H18.2884H18.2749H18.2614H18.248H18.2345H18.221H18.2076H18.1941H18.1806H18.1672H18.1537H18.1402H18.1268H18.1133H18.0998H18.0864H18.0729H18.0594H18.046H18.0325H18.0191H18.0056H17.9922H17.9788H17.9653H17.9519H17.9385H17.925H17.9116H17.8982H17.8848H17.8714H17.858H17.8446H17.8312H17.8178H17.8045H17.7911H17.7777H17.7644H17.751H17.7377H17.7243H17.711H17.6977H17.6844H17.671H17.6577H17.6445H17.6312H17.6179H17.6046H17.5914H17.5781H17.5649H17.5517H17.5384H17.5252H17.512H17.4989H17.4857H17.4725H17.4594H17.4462H17.4331H17.42H17.4069H17.3938H17.3807H17.3676H17.3545H17.3415H17.3285H17.3154H17.3024H17.2894H17.2765H17.2635H17.2506H17.2376H17.2247H17.2118H17.1989H17.186H17.1732H17.1603H17.1475H17.1347H17.1219H17.1091H17.0963H17.0836H17.0708H17.0581H17.0454H17.0327H17.0201H17.0074H16.9948H16.9822H16.9696H16.957H16.9445H16.932H16.9195H16.907H16.8945H16.882H16.8696H16.8572H16.8448H16.8324H16.8201H16.8077H16.7954H16.7831H16.7709H16.7586H16.7464H16.7342H16.722H16.7099H16.6977H16.6856H16.6735H16.6615H16.6494H16.6374H16.6254H16.6135H16.6015H16.5896H16.5777H16.5659H16.554H16.5422H16.5304H16.5186H16.5069H16.4952H16.4835H16.4718H16.4602H16.4486H16.437H16.4255H16.4139H16.4024H16.391H16.3795H16.3681H16.3567H16.3454H16.3341H16.3228H16.3115H16.3003H16.289H16.2779H16.2667H16.2556H16.2445H16.2335H16.2224H16.2114H16.2005H16.1895H16.1786H16.1678H16.1569H16.1461H16.1354H16.1246H16.1139H16.1032H16.0926H16.082H16.0714H16.0609H16.0504H16.0399H16.0295H16.0191H16.0087H15.9984H15.9881H15.9778H15.9676H15.9574H15.9473H15.9371H15.9271H15.917H15.907H15.897H15.8871H15.8772H15.8673H15.8575H15.8477H15.838H15.8283H15.8186H15.809H15.7994H15.7899H15.7804H15.7709H15.7614H15.7521H15.7427H15.7334H15.7241H15.7149H15.7057H15.6966H15.6875H15.6784H15.6694H15.6604H15.6514H15.6425H15.6337H15.6249H15.6161H15.6074H15.5987H15.5901H15.5815H15.5729H15.5644H15.556H15.5475H15.5392H15.5308H15.5225H15.5143H15.5061H15.498H15.4899H15.4818H15.4738H15.4658H15.4579H15.4501H15.4422H15.4345H15.4267H15.4191H15.4114H15.4038H15.3963H15.3888H15.3814H15.374H15.3666H15.3594H15.3521H15.3449H15.3378H15.3307H15.3236H15.3167H15.3097H15.3028H15.296H15.2892H15.2825H15.2758H15.2691H15.2625H15.256H15.2495H15.2431H15.2367H15.2304H15.2242H15.2179H15.2118H15.2057H15.1996H15.1936H15.1877H15.1818H15.176H15.1702H15.1645H15.1588H15.1532H15.1476H15.1421H15.1367H15.1313H15.126H15.1207H15.1155H15.1103H15.1052H15.1001H15.0952H15.0902H15.0853H15.0805H15.0758H15.0711H15.0664H15.0619H15.0573H15.0529H15.0485H15.0441H15.0398C14.3988 26.8551 14.0036 26.3844 13.7917 26.0021C13.5707 25.6033 13.4545 25.1437 13.4109 24.8382L13.4033 24.7852L13.4071 24.7319C13.5595 22.5979 13.8594 18.2575 13.8594 17.7367C13.8594 17.2334 14.1986 16.8595 14.4649 16.6379C14.7502 16.4005 15.0821 16.2287 15.3078 16.1384L15.3972 16.1027ZM15.5961 17.1027C15.4493 17.17 15.2603 17.277 15.1045 17.4066C14.8983 17.5781 14.8594 17.6956 14.8594 17.7367C14.8594 18.2995 14.5599 22.6258 14.4086 24.7468C14.4457 24.9683 14.5312 25.2736 14.6663 25.5174C14.8211 25.7966 14.9551 25.8551 15.0398 25.8551H15.0441H15.0485H15.0529H15.0573H15.0619H15.0664H15.0711H15.0758H15.0805H15.0853H15.0902H15.0952H15.1001H15.1052H15.1103H15.1155H15.1207H15.126H15.1313H15.1367H15.1421H15.1476H15.1532H15.1588H15.1645H15.1702H15.176H15.1818H15.1877H15.1936H15.1996H15.2057H15.2118H15.2179H15.2242H15.2304H15.2367H15.2431H15.2495H15.256H15.2625H15.2691H15.2758H15.2825H15.2892H15.296H15.3028H15.3097H15.3167H15.3236H15.3307H15.3378H15.3449H15.3521H15.3594H15.3666H15.374H15.3814H15.3888H15.3963H15.4038H15.4114H15.4191H15.4267H15.4345H15.4422H15.4501H15.4579H15.4658H15.4738H15.4818H15.4899H15.498H15.5061H15.5143H15.5225H15.5308H15.5392H15.5475H15.556H15.5644H15.5729H15.5815H15.5901H15.5987H15.6074H15.6161H15.6249H15.6337H15.6425H15.6514H15.6604H15.6694H15.6784H15.6875H15.6966H15.7057H15.7149H15.7241H15.7334H15.7427H15.7521H15.7614H15.7709H15.7804H15.7899H15.7994H15.809H15.8186H15.8283H15.838H15.8477H15.8575H15.8673H15.8772H15.8871H15.897H15.907H15.917H15.9271H15.9371H15.9473H15.9574H15.9676H15.9778H15.9881H15.9984H16.0087H16.0191H16.0295H16.0399H16.0504H16.0609H16.0714H16.082H16.0926H16.1032H16.1139H16.1246H16.1354H16.1461H16.1569H16.1678H16.1786H16.1895H16.2005H16.2114H16.2224H16.2335H16.2445H16.2556H16.2667H16.2779H16.289H16.3003H16.3115H16.3228H16.3341H16.3454H16.3567H16.3681H16.3795H16.391H16.4024H16.4139H16.4255H16.437H16.4486H16.4602H16.4718H16.4835H16.4952H16.5069H16.5186H16.5304H16.5422H16.554H16.5659H16.5777H16.5896H16.6015H16.6135H16.6254H16.6374H16.6494H16.6615H16.6735H16.6856H16.6977H16.7099H16.722H16.7342H16.7464H16.7586H16.7709H16.7831H16.7954H16.8077H16.8201H16.8324H16.8448H16.8572H16.8696H16.882H16.8945H16.907H16.9195H16.932H16.9445H16.957H16.9696H16.9822H16.9948H17.0074H17.0201H17.0327H17.0454H17.0581H17.0708H17.0836H17.0963H17.1091H17.1219H17.1347H17.1475H17.1603H17.1732H17.186H17.1989H17.2118H17.2247H17.2376H17.2506H17.2635H17.2765H17.2894H17.3024H17.3154H17.3285H17.3415H17.3545H17.3676H17.3807H17.3938H17.4069H17.42H17.4331H17.4462H17.4594H17.4725H17.4857H17.4989H17.512H17.5252H17.5384H17.5517H17.5649H17.5781H17.5914H17.6046H17.6179H17.6312H17.6445H17.6577H17.671H17.6844H17.6977H17.711H17.7243H17.7377H17.751H17.7644H17.7777H17.7911H17.8045H17.8178H17.8312H17.8446H17.858H17.8714H17.8848H17.8982H17.9116H17.925H17.9385H17.9519H17.9653H17.9788H17.9922H18.0056H18.0191H18.0325H18.046H18.0594H18.0729H18.0864H18.0998H18.1133H18.1268H18.1402H18.1537H18.1672H18.1806H18.1941H18.2076H18.221H18.2345H18.248H18.2614H18.2749H18.2884H18.3018H18.3153H18.3288H18.3422H18.3557H18.3692H18.3826H18.3961H18.4095H18.423H18.4364H18.4499H18.4633H18.4767H18.4902H18.5036H18.517H18.5304H18.5439H18.5573H18.5707H18.5841H18.5975H18.6109H18.6243H18.6376H18.651H18.6644H18.6777H18.6911H18.7044H18.7178H18.7311H18.7444H18.7578H18.7711H18.7844H18.7977H18.8109H18.8242H18.8375H18.8507H18.864H18.8772H18.8905H18.9037H18.9169H18.9301H18.9433H18.9565H18.9696H18.9828H18.9959H19.0091H19.0222H19.0353H19.0484H19.0615H19.0746H19.0876H19.1007H19.1137H19.1267H19.1398H19.1528H19.1657H19.1787H19.1917H19.2046H19.2175H19.2304H19.2433H19.2562H19.2691H19.2819H19.2948H19.3076H19.3204H19.3332H19.3459H19.3587H19.3714H19.3842H19.3969H19.4095H19.4222H19.4349H19.4475H19.4601H19.4727H19.4853H19.4978H19.5104H19.5229H19.5354H19.5479H19.5603H19.5728H19.5852H19.5976H19.61H19.6223H19.6347H19.647H19.6593H19.6715H19.6838H19.696H19.7082H19.7204H19.7326H19.7447H19.7568H19.7689H19.781H19.793H19.805H19.817H19.829H19.841H19.8529H19.8648H19.8767H19.8885H19.9003H19.9121H19.9239H19.9357H19.9474H19.9591H19.9707H19.9824H19.994H20.0056H20.0171H20.0287H20.0402H20.0517H20.0631H20.0745H20.0859H20.0973H20.1086H20.1199H20.1312H20.1424H20.1537H20.1649H20.176H20.1871H20.1982H20.2093H20.2203H20.2313H20.2423H20.2533H20.2642H20.275H20.2859H20.2967H20.3075H20.3182H20.3289H20.3396H20.3503H20.3609H20.3715H20.382H20.3925H20.403H20.4135H20.4239H20.4342H20.4446H20.4549H20.4652H20.4754H20.4856H20.4958H20.5059H20.516H20.526H20.5361H20.546H20.556H20.5617C20.7043 25.7553 20.8843 25.6049 21.0377 25.4245C21.2395 25.1872 21.3439 24.9595 21.3439 24.7675C21.3439 24.0698 21.0473 19.8773 20.8942 17.808C20.8638 17.6777 20.7901 17.4865 20.6721 17.3344C20.5527 17.1806 20.4206 17.1027 20.2563 17.1027H20.252H20.2477H20.2435H20.2392H20.2349H20.2306H20.2263H20.222H20.2177H20.2133H20.209H20.2046H20.2003H20.1959H20.1916H20.1872H20.1828H20.1784H20.174H20.1696H20.1652H20.1608H20.1564H20.1519H20.1475H20.143H20.1386H20.1341H20.1296H20.1252H20.1207H20.1162H20.1117H20.1072H20.1027H20.0981H20.0936H20.0891H20.0845H20.08H20.0754H20.0709H20.0663H20.0617H20.0572H20.0526H20.048H20.0434H20.0388H20.0342H20.0296H20.025H20.0203H20.0157H20.0111H20.0064H20.0018H19.9971H19.9924H19.9878H19.9831H19.9784H19.9737H19.969H19.9643H19.9596H19.9549H19.9502H19.9455H19.9408H19.9361H19.9313H19.9266H19.9219H19.9171H19.9124H19.9076H19.9028H19.8981H19.8933H19.8885H19.8837H19.8789H19.8742H19.8694H19.8646H19.8598H19.855H19.8501H19.8453H19.8405H19.8357H19.8308H19.826H19.8212H19.8163H19.8115H19.8066H19.8018H19.7969H19.7921H19.7872H19.7823H19.7774H19.7726H19.7677H19.7628H19.7579H19.753H19.7481H19.7432H19.7383H19.7334H19.7285H19.7236H19.7187H19.7138H19.7089H19.7039H19.699H19.6941H19.6891H19.6842H19.6793H19.6743H19.6694H19.6644H19.6595H19.6545H19.6496H19.6446H19.6397H19.6347H19.6297H19.6248H19.6198H19.6148H19.6099H19.6049H19.5999H19.5949H19.59H19.585H19.58H19.575H19.57H19.565H19.56H19.555H19.55H19.545H19.54H19.535H19.53H19.525H19.52H19.515H19.51H19.505H19.5H19.495H19.49H19.485H19.48H19.4749H19.4699H19.4649H19.4599H19.4549H19.4498H19.4448H19.4398H19.4348H19.4298H19.4247H19.4197H19.4147H19.4097H19.4046H19.3996H19.3946H19.3896H19.3845H19.3795H19.3745H19.3695H19.3644H19.3594H19.3544H19.3494H19.3443H19.3393H19.3343H19.3293H19.3242H19.3192H19.3142H19.3092H19.3042H19.2991H19.2941H19.2891H19.2841H19.279H19.274H19.269H19.264H19.259H19.254H19.249H19.2439H19.2389H19.2339H19.2289H19.2239H19.2189H19.2139H19.2089H19.2039H19.1989H19.1939H19.1889H19.1839H19.1789H19.1739H19.1689H19.1639H19.1589H19.1539H19.149H19.144H19.139H19.134H19.129H19.1241H19.1191H19.1141H19.1092H19.1042H19.0992H19.0943H19.0893H19.0844H19.0794H19.0745H19.0695H19.0646H19.0596H19.0547H19.0498H19.0448H19.0399H19.035H19.03H19.0251H19.0202H19.0153H19.0104H19.0055H19.0006H18.9957H18.9908H18.9859H18.981H18.9761H18.9712H18.9663H18.9614H18.9566H18.9517H18.9468H18.942H18.9371H18.9322H18.9274H18.9225H18.9177H18.9129H18.908H18.9032H18.8984H18.8935H18.8887H18.8839H18.8791H18.8743H18.8695H18.8647H18.8599H18.8551H18.8503H18.8456H18.8408H18.836H18.8312H18.8265H18.8217H18.817H18.8122H18.8075H18.8028H18.798H18.7933H18.7886H18.7839H18.7792H18.7745H18.7698H18.7651H18.7604H18.7557H18.751H18.7464H18.7417H18.737H18.7324H18.7277H18.7231H18.7185H18.7138H18.7092H18.7046H18.7H18.6954H18.6908H18.6862H18.6816H18.677H18.6725H18.6679H18.6633H18.6588H18.6542H18.6497H18.6451H18.6406H18.6361H18.6316H18.6271H18.6226H18.6181H18.6136H18.6091H18.6046H18.6002H18.5957H18.5913H18.5868H18.5824H18.5779H18.5735H18.5691H18.5647H18.5603H18.5559H18.5515H18.5471H18.5428H18.5384H18.534H18.5297H18.5254H18.521H18.5167H18.5124H18.5081H18.5038H18.4995H18.4952H18.4909H18.4867H18.4824H18.4781H18.4739H18.4697H18.4654H18.4612H18.457H18.4528H18.4486H18.4444H18.4403H18.4361H18.4319H18.4278H18.4236H18.4195H18.4154H18.4113H18.4072H18.4031H18.399H18.3949H18.3909H18.3868H18.3827H18.3787H18.3747H18.3707H18.3667H18.3626H18.3587H18.3547H18.3507H18.3467H18.3428H18.3388H18.3349H18.331H18.3271H18.3232H18.3193H18.3154H18.3115H18.3077H18.3038H18.3H18.2961H18.2923H18.2885H18.2847H18.2809H18.2771H18.2734H18.2696H18.2659H18.2621H18.2584H18.2547H18.251H18.2473H18.2436H18.2399H18.2363H18.2326H18.229H18.2253H18.2217H18.2181H18.2145H18.2109H18.2074H18.2038H18.2003H18.1967H18.1932H18.1897H18.1862H18.1827H18.1792H18.1757H18.1723H18.1688H18.1654H18.162H18.1586H18.1552H18.1518H18.1484H18.1451H18.1417H18.1384H18.1351H18.1318H18.1285H18.1252H18.1219H18.1186H18.1154H18.1122H18.1089H18.1057H18.1025H18.0993H18.0962H18.093H18.0899H18.0867H18.0836H18.0805H18.0774H18.0743H18.0713H18.0682H18.0652H18.0621H18.0591H18.0561H18.0531H18.0502H18.0472H18.0443H18.0413H18.0384H18.0355H18.0326H18.0297H18.0269H18.024H18.0212H18.0184H18.0156H18.0128H18.01H18.0072H18.0045H18.0017H17.999H17.9963H17.9936H17.9909H17.9883H15.5961ZM11.6378 18.8707C10.555 18.4646 8.51199 21.5727 9.82341 23.6335C11.411 26.1283 13.4522 19.5511 11.6378 18.8707ZM24.3702 18.9068C25.453 18.5007 27.496 21.6088 26.1846 23.6696C24.597 26.1644 22.5558 19.5872 24.3702 18.9068Z" fill="#91A1BF"/>
<path fill-rule="evenodd" clip-rule="evenodd" d="M17.7305 0H17.7616C20.2586 0 22.4844 1.73561 24.2082 3.74672C25.9494 5.77811 27.2781 8.20581 27.9737 9.82868L27.9756 9.83332L27.9756 9.83333L34.7796 26.163L34.7983 26.2078L34.808 26.2553C35.192 28.1367 35.5341 31.0517 35.7519 33.5987C35.861 34.8748 35.9395 36.0664 35.9765 36.9987C35.995 37.4643 36.0033 37.8698 35.9995 38.1908C35.9959 38.492 35.9819 38.7717 35.9372 38.9506C35.8305 39.3776 35.7284 39.6996 35.6245 39.9405C35.5235 40.1747 35.4021 40.3777 35.232 40.5181C35.0353 40.6804 34.8288 40.7154 34.6626 40.7109C34.6006 40.7092 34.5402 40.7017 34.5057 40.6974H34.5056L34.4956 40.6961C34.4546 40.6911 34.4405 40.6902 34.4316 40.6902H1.70311C1.49174 40.7197 1.29603 40.6543 1.15592 40.5842C0.986638 40.4996 0.825537 40.3727 0.682829 40.2215C0.395913 39.9176 0.143756 39.4737 0.0344969 38.9274C-0.000764005 38.7511 -0.00394814 38.4777 0.0029516 38.1825C0.0102931 37.8683 0.031411 37.4717 0.0628231 37.016C0.125708 36.1037 0.231179 34.9355 0.356084 33.677C0.605989 31.1589 0.935251 28.2637 1.16207 26.298L1.16957 26.233L1.19357 26.172C2.17823 23.6725 4.91724 16.9083 8.00445 9.82585C11.1378 2.63758 15.6622 0.258541 17.6996 0.00386107L17.7305 0ZM17.7933 1.00012C16.264 1.20954 12.3795 3.08965 9.4101 9.16629C11.7739 8.76742 15.8487 8.16463 17.9883 8.16463C20.1268 8.16463 24.1988 8.76686 26.5631 9.16573C25.8418 7.71832 24.7651 5.93309 23.4489 4.39751C21.7794 2.44974 19.8211 1.01492 17.7933 1.00012ZM2.14797 26.4777C3.14685 23.9451 5.853 17.2661 8.90232 10.2686C11.0842 9.88311 15.7256 9.16463 17.9883 9.16463C20.2508 9.16463 24.8915 9.88298 27.0737 10.2685L33.8378 26.5026C33.9058 26.8397 33.9727 27.2114 34.0378 27.6093L33.6375 26.8087C33.2672 26.068 32.8968 26.0833 32.1561 26.1138C31.9896 26.1207 31.8044 26.1283 31.5963 26.1283C30.4319 26.1283 30.1952 28.0348 30.0474 29.2259C30.034 29.3339 30.0213 29.436 30.0087 29.5303C29.6307 31.7983 28.784 36.5158 28.4211 37.2415C28.0582 37.9673 27.3627 38.1487 27.0603 38.1487H8.91623C8.00903 38.1487 7.47983 37.5439 7.32863 37.2415L5.51422 26.8087C5.51422 26.1283 4.43275 26.1283 3.47301 26.1283C2.69625 26.1283 2.58257 26.4254 2.44722 26.7792C2.41534 26.8625 2.38225 26.949 2.33901 27.0355L1.95099 28.1995C2.02131 27.5789 2.08805 26.9972 2.14797 26.4777Z" fill="#91A1BF"/>
<line x1="6.38049" y1="34.2195" x2="9.5557" y2="12.9002" stroke="#91A1BF"/>
<line y1="-0.5" x2="21.5544" y2="-0.5" transform="matrix(-0.147311 -0.98909 -0.98909 0.147311 29.1015 34.2931)" stroke="#91A1BF"/>
</svg>
