<svg fill="none" height="46" viewBox="0 0 102 46" width="102" xmlns="http://www.w3.org/2000/svg" xmlns:xlink="http://www.w3.org/1999/xlink"><mask id="a" fill="#fff"><path clip-rule="evenodd" d="m80 2h-58c-2.2091 0-4 1.79086-4 4v34c0 2.2091 1.7909 4 4 4h58c2.2091 0 4-1.7909 4-4v-34c0-2.20914-1.7909-4-4-4zm-58-2c-3.3137 0-6 2.68629-6 6v34c0 3.3137 2.6863 6 6 6h58c3.3137 0 6-2.6863 6-6v-34c0-3.31371-2.6863-6-6-6z" fill="#fff" fill-rule="evenodd"/></mask><g fill="#91a1bf"><path clip-rule="evenodd" d="m80 2h-58c-2.2091 0-4 1.79086-4 4v34c0 2.2091 1.7909 4 4 4h58c2.2091 0 4-1.7909 4-4v-34c0-2.20914-1.7909-4-4-4zm-58-2c-3.3137 0-6 2.68629-6 6v34c0 3.3137 2.6863 6 6 6h58c3.3137 0 6-2.6863 6-6v-34c0-3.31371-2.6863-6-6-6z" fill-rule="evenodd"/><path d="m22 3h58v-2h-58zm-3 3c0-1.65685 1.3431-3 3-3v-2c-2.7614 0-5 2.23858-5 5zm0 34v-34h-2v34zm3 3c-1.6569 0-3-1.3431-3-3h-2c0 2.7614 2.2386 5 5 5zm58 0h-58v2h58zm3-3c0 1.6569-1.3431 3-3 3v2c2.7614 0 5-2.2386 5-5zm0-34v34h2v-34zm-3-3c1.6569 0 3 1.34315 3 3h2c0-2.76142-2.2386-5-5-5zm-63 3c0-2.76142 2.2386-5 5-5v-2c-3.866 0-7 3.13401-7 7zm0 34v-34h-2v34zm5 5c-2.7614 0-5-2.2386-5-5h-2c0 3.866 3.134 7 7 7zm58 0h-58v2h58zm5-5c0 2.7614-2.2386 5-5 5v2c3.866 0 7-3.134 7-7zm0-34v34h2v-34zm-5-5c2.7614 0 5 2.23858 5 5h2c0-3.86599-3.134-7-7-7zm-58 0h58v-2h-58z" mask="url(#a)"/><path clip-rule="evenodd" d="m66 23c0 8.2843-6.7157 15-15 15s-15-6.7157-15-15 6.7157-15 15-15 15 6.7157 15 15zm1 0c0 8.8366-7.1634 16-16 16s-16-7.1634-16-16 7.1634-16 16-16 16 7.1634 16 16zm-16.4849 9.1689c-4.685-.2436-8.4408-3.9991-8.6847-8.6841h-1.0012c.2457 5.2375 4.4484 9.44 9.6859 9.6853zm-8.6831-9.684c.2582-4.6712 4.0079-8.4115 8.6831-8.6545v-1.0012c-5.2276.2449-9.4244 4.432-9.6845 9.6557zm9.6831-8.6528c4.6608.2579 8.3946 3.9919 8.6522 8.6528h1.0014c-.2596-5.2134-4.4403-9.3943-9.6536-9.6542zm8.6538 9.6527c-.2434 4.6747-3.9831 8.424-8.6538 8.6824v1.0014c5.2231-.2604 9.4098-4.4567 9.655-9.6838z" fill-rule="evenodd"/><path d="m15.5 9.5h-12.5c-1.38071 0-2.5 1.1193-2.5 2.5v22c0 1.3807 1.11929 2.5 2.5 2.5h12.5z" stroke="#91a1bf"/><path d="m2.5 12.5h12v5h-12z" stroke="#616b80"/><path d="m5.5 21.5h12v3h-12z" stroke="#616b80" transform="matrix(0 1 -1 0 27 16)"/><path d="m14.5 21.5h12v3h-12z" stroke="#616b80" transform="matrix(0 1 -1 0 36 7)"/></g><path d="m7.5 21.5h2v5h-2z" stroke="#616b80"/><path d="m7.5 28.5h2v5h-2z" stroke="#616b80"/><path d="m86.5 9.5h12.5c1.381 0 2.5 1.1193 2.5 2.5v22c0 1.3807-1.119 2.5-2.5 2.5h-12.5z" fill="#91a1bf" stroke="#91a1bf"/><path d="m87.5 12.5h11v5h-11z" fill="#616b80" stroke="#616b80"/><path d="m87.5 20.5h11v5h-11z" fill="#616b80" stroke="#616b80"/><path d="m87.5 28.5h11v5h-11z" fill="#616b80" stroke="#616b80"/></svg>