<svg width="36" height="58" viewBox="0 0 36 58" fill="none" xmlns="http://www.w3.org/2000/svg">
<path d="M17.697 32C16.497 32 15.697 47 15.697 47H19.697C19.697 47 18.897 32 17.697 32Z" stroke="#91A1BF"/>
<path d="M17.697 56C16.497 56 15.697 48 15.697 48H19.697C19.697 48 18.897 56 17.697 56Z" fill="#91A1BF" stroke="#91A1BF"/>
<rect x="15.197" y="0.5" width="5" height="47" stroke="#91A1BF"/>
<rect x="14.697" y="9" width="6" height="8" fill="#91A1BF"/>
<line x1="14.3309" y1="48.366" x2="1.36605" y2="55.8513" stroke="#91A1BF" stroke-width="2" stroke-linecap="square"/>
<line x1="1" y1="-1" x2="15.9706" y2="-1" transform="matrix(0.866026 0.5 0.5 -0.866026 20.6969 47)" stroke="#91A1BF" stroke-width="2" stroke-linecap="square"/>
<line x1="20.697" y1="2.5" x2="25.697" y2="2.5" stroke="#91A1BF"/>
<line x1="9.69696" y1="2.5" x2="14.697" y2="2.5" stroke="#91A1BF"/>
<line x1="15.1002" y1="39.2957" x2="4.10016" y2="54.2957" stroke="#91A1BF"/>
<line y1="-0.5" x2="18.6011" y2="-0.5" transform="matrix(0.591364 0.806405 0.806405 -0.591364 20.697 39)" stroke="#91A1BF"/>
</svg>
